# xmcd
#
# Track frame offsets:
#   150
#   10025
#   20225
#   30375
#   42163
#   51975
#   60613
#   71600
#   83013
#   94863
#   107400
#   117350
#   129813
#   140888
#   150988
#   161113
#   171450
#   183175
#   193963
#   204763
#
# Disc length: 2884 seconds
#
# Revision: 0
# Processed by: cddbd v1.5PL3 Copyright (c) Steve Scherf et al.
# Submitted via: Media_Universe 3.0
#
DISCID=0b0b4214
DTITLE=Jimmy Rogers and Conway Twitty - Jimmy Rogers and Conway Twitty
DYEAR=1900
DGENRE=Country
TTITLE0=Honeycomb
TTITLE1=Kisses Sweeter Than Wine
TTITLE2=Oh Oh I'm Falling In Love
TTITLE3=Just A Closer Walk With Thee
TTITLE4=Bimbombey
TTITLE5=Woman From Liberia
TTITLE6=Waltzing Matilda
TTITLE7=The World I Used To Know
TTITLE8=It's Over
TTITLE9=Long Hot Summer Theme
TTITLE10=It's Only Make Believe
TTITLE11=Danny Boy
TTITLE12=Heavenly
TTITLE13=I'll Try
TTITLE14=Lonely Blue Boy
TTITLE15=Halfway To Heaven
TTITLE16=Is A Blue Bird Blue
TTITLE17=The Hurt In My Heart
TTITLE18=Mona Lisa
TTITLE19=What Am I Living For
EXTD=
EXTT0=
EXTT1=
EXTT2=
EXTT3=
EXTT4=
EXTT5=
EXTT6=
EXTT7=
EXTT8=
EXTT9=
EXTT10=
EXTT11=
EXTT12=
EXTT13=
EXTT14=
EXTT15=
EXTT16=
EXTT17=
EXTT18=
EXTT19=
PLAYORDER=
